<svg xmlns="http://www.w3.org/2000/svg" width="1200" height="400" viewBox="0 0 1200 400" preserveAspectRatio="xMidYMid meet" role="img" aria-labelledby="fieldops-ai-light-title fieldops-ai-light-desc">
  <title id="fieldops-ai-light-title">FieldOps AI — active development</title>
  <desc id="fieldops-ai-light-desc">Applied AI technical delivery project. Active development: architecture and workflow design. The architecture illustration remains conceptual and connects operational input, routing, human review and recorded output. It does not imply completed integrations, production deployment or professional FDE employment.</desc>
  <defs>
    <linearGradient id="fieldops-ai-light-surface" x1="0" y1="0" x2="1" y2="1">
      <stop offset="0" stop-color="#ffffff"/>
      <stop offset="1" stop-color="#f3f6fc"/>
    </linearGradient>
  </defs>
  <rect x="1" y="1" width="1198" height="398" rx="16" fill="url(#fieldops-ai-light-surface)" stroke="#d1dbee" stroke-width="2"/>
  <path d="M24 47V353" stroke="#405bc2" stroke-width="4"/>
  <path d="M797 61V339" stroke="#d1dbee" stroke-width="2"/>
  <g fill="none" stroke="#bdcce1" stroke-width="1" opacity="0.32">
    <path d="M837 108H1150M837 194H1150M837 280H1150M883 62V300M991 62V300M1099 62V300"/>
  </g>
  <g font-family="-apple-system, BlinkMacSystemFont, 'Segoe UI', Arial, sans-serif">
    <text x="66" y="69" fill="#405bc2" font-size="27" font-weight="600" letter-spacing="2.5">APPLIED AI · TECHNICAL DELIVERY</text>
    <text x="64" y="173" fill="#16243b" font-size="84" font-weight="700" letter-spacing="-1.5">FIELDOPS AI</text>
    <text x="66" y="224" fill="#566781" font-size="34" font-weight="400">Bilingual agentic workflow</text>
    <circle cx="74" cy="330" r="6" fill="#405bc2"/>
    <text x="97" y="341" fill="#566781" font-size="34" font-weight="500">ACTIVE DEVELOPMENT</text>
    <text x="994" y="341" fill="#566781" font-size="26" font-weight="500" letter-spacing="2.5" text-anchor="middle">CONCEPT</text>
  </g>
  <g fill="none" stroke-linecap="round" stroke-linejoin="round">
    <path d="M879 165V119H1083V179M1083 240V280H930" stroke="#405bc2" stroke-width="3"/>
    <path d="M1075 166L1083 180L1091 166M943 272L929 280L943 288" stroke="#405bc2" stroke-width="3"/>
    <path d="M852 180L879 166L906 180V227L879 241L852 227Z" fill="#e6ecf7" stroke="#516882" stroke-width="3"/>
    <path d="M852 180L879 194L906 180M879 194V241" stroke="#516882" stroke-width="3"/>
    <path d="M862 202L871 207M862 214L871 219M887 207L897 202M887 219L897 214" stroke="#405bc2" stroke-width="2.5"/>
    <path d="M949 119L982 91L1015 119L982 147Z" fill="#ffffff" stroke="#405bc2" stroke-width="3"/>
    <path d="M970 119H994M982 107V131" stroke="#516882" stroke-width="3"/>
    <circle cx="1083" cy="202" r="17" fill="#e6ecf7" stroke="#516882" stroke-width="3"/>
    <path d="M1053 252V235C1053 225 1067 217 1071 217M1095 217C1108 219 1113 228 1113 237V252" stroke="#516882" stroke-width="3"/>
    <path d="M1053 252H1113" stroke="#405bc2" stroke-width="3"/>
    <path d="M945 218H984V250H945Z" fill="#ffffff" stroke="#516882" stroke-width="3"/>
    <path d="M955 229H975M955 239H969" stroke="#405bc2" stroke-width="2.5"/>
    <path d="M943 177H985M964 166V188" stroke="#bdcce1" stroke-width="2.5"/>
  </g>
</svg>
